<svg xmlns="http://www.w3.org/2000/svg" width="78" height="78" viewBox="0 0 78 78"><defs><style>.a,.b{fill:#fff;}.b,.c{stroke:#8b8c8c;}.b,.c,.e{stroke-miterlimit:10;}.b,.c,.d,.e{stroke-width:2.2px;}.c,.d,.e{fill:none;}.d,.e{stroke:#e8798a;}.e{stroke-linecap:round;}</style></defs><g transform="translate(-466.136 -532.136)"><rect class="a" width="78" height="78" transform="translate(466.136 532.136)"/><g transform="translate(473.027 535.62)"><rect class="b" width="65.149" height="27.363" transform="translate(0 42.999)"/><line class="c" y2="27.363" transform="translate(44.302 42.999)"/><line class="c" y2="27.363" transform="translate(20.848 42.999)"/><path class="d" d="M0,0H13.03V11.727H0Z" transform="translate(26.06 53.423)"/><line class="c" x2="2.606" transform="translate(26.06 48.211)"/><line class="c" x2="2.606" transform="translate(31.272 48.211)"/><line class="c" x2="2.606" transform="translate(36.484 48.211)"/><path class="e" d="M430.818,101v11.727L423,121.848v5.212h20.848v-5.212l-7.818-9.121V101" transform="translate(-400.849 -101)"/><rect class="b" width="16.939" height="11.727" transform="translate(48.211 14.333)"/><rect class="b" width="16.939" height="11.727" transform="translate(0 14.333)"/><line class="c" x2="20.848" transform="translate(44.302 50.817)"/><line class="c" x2="20.848" transform="translate(0 52.12)"/><line class="c" x2="20.848" transform="translate(0 61.24)"/></g></g></svg>