<svg xmlns="http://www.w3.org/2000/svg" width="108.182" height="34" viewBox="0 0 108.182 34"><defs><style>.a{fill:#fff;}</style></defs><g transform="translate(0 0)"><g transform="translate(0 0)"><path d="M7.82,34.873c-.28,0-.552,0-.83-.01a12.006,12.006,0,0,1-1.715-.145,5.519,5.519,0,0,1-1.52-.487,4.956,4.956,0,0,1-1.282-.9,4.74,4.74,0,0,1-.936-1.241,4.976,4.976,0,0,1-.5-1.473,10.7,10.7,0,0,1-.153-1.667c-.006-.187-.013-.812-.013-.812V7.6s.008-.615.013-.8a10.662,10.662,0,0,1,.152-1.664,5,5,0,0,1,.5-1.477,4.785,4.785,0,0,1,.931-1.243,5.1,5.1,0,0,1,1.287-.909,5.463,5.463,0,0,1,1.517-.483A11.909,11.909,0,0,1,6.992.886L7.82.875H102.1l.838.011a11.718,11.718,0,0,1,1.7.145,5.572,5.572,0,0,1,1.533.487,5.054,5.054,0,0,1,2.216,2.151,5.012,5.012,0,0,1,.491,1.466,11.2,11.2,0,0,1,.159,1.677c0,.252,0,.522,0,.791.007.333.007.651.007.97v18.6c0,.323,0,.638-.007.956,0,.289,0,.554,0,.826a10.974,10.974,0,0,1-.157,1.647,4.99,4.99,0,0,1-.5,1.484,4.883,4.883,0,0,1-.932,1.232,4.962,4.962,0,0,1-1.284.909,5.5,5.5,0,0,1-1.53.489,11.869,11.869,0,0,1-1.715.145c-.269.006-.55.01-.823.01l-.995,0Z" transform="translate(-0.873 -0.875)"/></g></g><g transform="translate(9.893 6.721)"><g transform="translate(0 0.245)"><path class="a" d="M23.161,19.437a4.248,4.248,0,0,1,2.1-3.586A4.555,4.555,0,0,0,21.7,13.988c-1.5-.152-2.948.868-3.711.868s-1.952-.853-3.216-.827a4.759,4.759,0,0,0-3.987,2.356c-1.724,2.892-.438,7.141,1.213,9.479.826,1.145,1.792,2.423,3.055,2.378,1.236-.05,1.7-.764,3.191-.764s1.912.764,3.2.735c1.327-.021,2.163-1.15,2.96-2.305a9.349,9.349,0,0,0,1.353-2.671A4.13,4.13,0,0,1,23.161,19.437Z" transform="translate(-9.972 -9.437)"/><path class="a" d="M21.685,11.735a4.122,4.122,0,0,0,.993-3.014,4.467,4.467,0,0,0-2.859,1.433,3.926,3.926,0,0,0-1.019,2.9A3.7,3.7,0,0,0,21.685,11.735Z" transform="translate(-10.93 -8.72)"/><g transform="translate(21.799 7.902)"><path class="a" d="M41.447,25.9H37.228l-1.013,2.9H34.427l4-10.724H40.28l4,10.724H42.459Zm-3.782-1.338h3.344l-1.649-4.7h-.046Z" transform="translate(-34.427 -17.899)"/><path class="a" d="M54.233,25.339c0,2.43-1.342,3.991-3.368,3.991a2.756,2.756,0,0,1-2.539-1.368h-.038v3.873H46.631V21.429h1.6v1.3h.03a2.884,2.884,0,0,1,2.57-1.382C52.883,21.347,54.233,22.916,54.233,25.339Zm-1.7,0c0-1.583-.844-2.624-2.133-2.624-1.266,0-2.117,1.063-2.117,2.624s.851,2.63,2.117,2.63C51.686,27.969,52.531,26.936,52.531,25.339Z" transform="translate(-35.753 -18.345)"/><path class="a" d="M64.2,25.339c0,2.43-1.342,3.991-3.368,3.991a2.755,2.755,0,0,1-2.539-1.368h-.038v3.873H56.6V21.429h1.6v1.3h.03a2.884,2.884,0,0,1,2.57-1.382C62.848,21.347,64.2,22.916,64.2,25.339Zm-1.7,0c0-1.583-.844-2.624-2.133-2.624-1.266,0-2.117,1.063-2.117,2.624s.851,2.63,2.117,2.63c1.288,0,2.133-1.033,2.133-2.63Z" transform="translate(-36.836 -18.345)"/><path class="a" d="M71.5,25.786c.123,1.063,1.189,1.762,2.646,1.762,1.4,0,2.4-.7,2.4-1.657,0-.832-.606-1.331-2.04-1.672l-1.435-.335c-2.033-.476-2.976-1.4-2.976-2.891,0-1.85,1.664-3.121,4.028-3.121,2.339,0,3.942,1.271,4,3.121H76.452c-.1-1.07-1.013-1.716-2.348-1.716s-2.248.654-2.248,1.6c0,.758.583,1.2,2.01,1.546l1.22.29c2.271.52,3.215,1.4,3.215,2.973,0,2.006-1.65,3.263-4.273,3.263-2.455,0-4.112-1.227-4.219-3.167Z" transform="translate(-38.271 -17.871)"/><path class="a" d="M83,19.3v1.85h1.535v1.271H83v4.31a.854.854,0,0,0,.982.982,5.34,5.34,0,0,0,.545-.037v1.263a4.691,4.691,0,0,1-.92.074c-1.634,0-2.271-.595-2.271-2.111V22.421H80.163V21.15h1.173V19.3Z" transform="translate(-39.396 -18.066)"/><path class="a" d="M86.065,25.337a3.832,3.832,0,1,1,7.656,0,3.832,3.832,0,1,1-7.656,0Zm5.968,0c0-1.688-.8-2.684-2.141-2.684s-2.14,1-2.14,2.684.8,2.683,2.14,2.683,2.14-.988,2.14-2.683Z" transform="translate(-40.037 -18.343)"/><path class="a" d="M96.186,21.429h1.58V22.76H97.8a1.917,1.917,0,0,1,1.941-1.413,2.634,2.634,0,0,1,.568.06v1.5a2.385,2.385,0,0,0-.744-.1,1.7,1.7,0,0,0-1.29.515,1.586,1.586,0,0,0-.436,1.284v4.638H96.186Z" transform="translate(-41.137 -18.345)"/><path class="a" d="M108.5,26.949c-.223,1.419-1.65,2.393-3.475,2.393a3.609,3.609,0,0,1-3.8-3.969c0-2.452,1.465-4.043,3.735-4.043,2.233,0,3.637,1.486,3.637,3.857v.55h-5.7v.1a2,2,0,0,0,.57,1.582,2.137,2.137,0,0,0,1.6.633,1.832,1.832,0,0,0,1.864-1.1Zm-5.6-2.334h4.035a1.847,1.847,0,0,0-.542-1.411,1.973,1.973,0,0,0-1.437-.573,2.077,2.077,0,0,0-1.454.577,1.949,1.949,0,0,0-.6,1.407Z" transform="translate(-41.683 -18.343)"/></g></g><g transform="translate(22.907)"><path class="a" d="M37.592,8.73a2.394,2.394,0,0,1,1.877.706,2.235,2.235,0,0,1,.626,1.854,2.323,2.323,0,0,1-2.5,2.592H35.671V8.73Zm-1.1,4.424h1a1.7,1.7,0,0,0,1.332-.522,1.587,1.587,0,0,0,.422-1.331,1.592,1.592,0,0,0-.429-1.322A1.7,1.7,0,0,0,37.5,9.458h-1Z" transform="translate(-35.671 -8.476)"/><path class="a" d="M41.68,12.126a1.825,1.825,0,0,1,.89-1.741,1.954,1.954,0,0,1,2.005,0,1.825,1.825,0,0,1,.89,1.741,1.825,1.825,0,0,1-.889,1.744,1.954,1.954,0,0,1-2.007,0A1.825,1.825,0,0,1,41.68,12.126Zm2.971,0c0-.843-.391-1.336-1.077-1.336s-1.076.493-1.076,1.336.387,1.339,1.076,1.339,1.077-.493,1.077-1.339Z" transform="translate(-36.323 -8.665)"/><path class="a" d="M51.03,14.083h-.822l-.83-2.864h-.063l-.826,2.864h-.814l-1.106-3.889h.8l.719,2.967h.059l.825-2.967h.76l.825,2.967h.063l.716-2.967h.792Z" transform="translate(-36.855 -8.677)"/><path class="a" d="M53.854,10.182h.763V10.8h.059a1.207,1.207,0,0,1,1.2-.693,1.328,1.328,0,0,1,1.054.4,1.239,1.239,0,0,1,.336,1.047v2.517H56.47V11.746c0-.625-.28-.936-.866-.936a.936.936,0,0,0-.713.279.875.875,0,0,0-.245.706v2.275h-.792Z" transform="translate(-37.646 -8.664)"/><path class="a" d="M59.094,8.437h.792v5.407h-.792Z" transform="translate(-38.216 -8.437)"/><path class="a" d="M61.217,12.126a1.825,1.825,0,0,1,.89-1.741,1.954,1.954,0,0,1,2.005,0A1.825,1.825,0,0,1,65,12.126a1.825,1.825,0,0,1-.889,1.744,1.954,1.954,0,0,1-2.007,0A1.825,1.825,0,0,1,61.217,12.126Zm2.971,0c0-.843-.391-1.336-1.077-1.336s-1.076.493-1.076,1.336.387,1.339,1.076,1.339,1.077-.493,1.077-1.339Z" transform="translate(-38.445 -8.665)"/><path class="a" d="M66.4,12.972c0-.7.538-1.1,1.493-1.161l1.087-.061v-.336c0-.411-.28-.643-.822-.643-.442,0-.749.157-.837.432h-.767c.081-.668.729-1.1,1.64-1.1,1.006,0,1.574.485,1.574,1.307v2.657h-.763v-.546h-.063a1.363,1.363,0,0,1-1.206.611,1.238,1.238,0,0,1-.935-.294,1.159,1.159,0,0,1-.4-.869Zm2.58-.332v-.325l-.98.061c-.553.036-.8.218-.8.561s.313.554.744.554a.967.967,0,0,0,.706-.212.907.907,0,0,0,.334-.639Z" transform="translate(-39.009 -8.665)"/><path class="a" d="M71.348,11.9c0-1.229.652-2.007,1.666-2.007a1.331,1.331,0,0,1,1.231.682H74.3V8.437H75.1v5.407h-.759v-.614h-.063a1.4,1.4,0,0,1-1.26.678C71.993,13.908,71.348,13.129,71.348,11.9Zm.818,0c0,.825.4,1.321,1.072,1.321s1.08-.5,1.08-1.318-.417-1.321-1.08-1.321-1.072.5-1.072,1.318Z" transform="translate(-39.547 -8.437)"/><path class="a" d="M79.229,12.126a1.825,1.825,0,0,1,.89-1.741,1.954,1.954,0,0,1,2.005,0,1.825,1.825,0,0,1,.89,1.741,1.825,1.825,0,0,1-.889,1.744,1.954,1.954,0,0,1-2.007,0A1.825,1.825,0,0,1,79.229,12.126Zm2.971,0c0-.843-.391-1.336-1.077-1.336s-1.076.493-1.076,1.336.387,1.339,1.076,1.339S82.2,12.972,82.2,12.126Z" transform="translate(-40.402 -8.665)"/><path class="a" d="M84.669,10.182h.763V10.8h.059a1.207,1.207,0,0,1,1.2-.693,1.328,1.328,0,0,1,1.054.4,1.239,1.239,0,0,1,.336,1.047v2.517h-.792V11.746c0-.625-.28-.936-.866-.936a.936.936,0,0,0-.713.279.875.875,0,0,0-.245.706v2.275h-.792Z" transform="translate(-40.994 -8.664)"/><path class="a" d="M93.341,9.074v.986h.87v.646h-.87v2c0,.407.173.586.568.586a2.728,2.728,0,0,0,.3-.018v.639a2.68,2.68,0,0,1-.431.039c-.881,0-1.232-.3-1.232-1.05v-2.2h-.637V10.06h.637V9.074Z" transform="translate(-41.781 -8.524)"/><path class="a" d="M95.7,8.437h.785V10.58h.063a1.241,1.241,0,0,1,1.224-.7,1.344,1.344,0,0,1,1.043.41,1.255,1.255,0,0,1,.339,1.04v2.511h-.793V11.522c0-.621-.3-.936-.858-.936a.955.955,0,0,0-.742.265.892.892,0,0,0-.269.721v2.271H95.7Z" transform="translate(-42.193 -8.437)"/><path class="a" d="M104.321,13.022a1.629,1.629,0,0,1-1.739,1.125,1.851,1.851,0,0,1-1.407-.588,1.73,1.73,0,0,1-.447-1.419,1.756,1.756,0,0,1,.447-1.425,1.878,1.878,0,0,1,1.4-.607,1.733,1.733,0,0,1,1.791,1.96v.268h-2.834v.043a1.008,1.008,0,0,0,.28.786,1.077,1.077,0,0,0,.789.328.971.971,0,0,0,.955-.471Zm-2.786-1.253h2.027a.921.921,0,0,0-.264-.716.984.984,0,0,0-.724-.292,1.044,1.044,0,0,0-.739.291.979.979,0,0,0-.3.716Z" transform="translate(-42.737 -8.665)"/></g></g></svg>