<svg xmlns="http://www.w3.org/2000/svg" xmlns:xlink="http://www.w3.org/1999/xlink" width="190" height="50" xmlns:v="https://vecta.io/nano"><defs><path id="A" d="M0 .338h35.316v35.315H0z"/><path id="B" d="M105.071 18.715h5.772c.501 0 .953-.108 1.356-.322s.747-.505 1.034-.872.51-.792.672-1.276.241-.984.241-1.503a4.08 4.08 0 0 0-.282-1.516c-.188-.474-.439-.895-.751-1.262s-.681-.653-1.101-.859a2.99 2.99 0 0 0-1.329-.309h-5.611v7.92zm-2.416 8.993V8.648h8.161c.841 0 1.615.174 2.322.524a5.85 5.85 0 0 1 1.826 1.396 6.68 6.68 0 0 1 1.195 1.96 5.99 5.99 0 0 1 .429 2.215 6.55 6.55 0 0 1-.282 1.919c-.188.618-.456 1.177-.805 1.678a5.39 5.39 0 0 1-1.262 1.289c-.493.358-1.043.618-1.651.778l4.618 7.302h-2.738l-4.349-6.846h-5.047v6.846h-2.416z"/></defs><g transform="translate(.5 7)" fill="none" fill-rule="evenodd"><path d="M.434 18.178C.434 8.522 8.262.693 17.919.693a17.49 17.49 0 0 1 17.485 17.485 17.49 17.49 0 0 1-17.485 17.485C8.262 35.663.434 27.835.434 18.178" fill="#fd3753"/><g transform="translate(.261 .182)"><mask id="C" fill="#fff"><use xlink:href="#A"/></mask><path d="M17.658.684C8.112.684.346 8.45.346 17.996s7.766 17.312 17.312 17.312S34.97 27.542 34.97 17.996 27.203.684 17.658.684m0 34.97C7.921 35.654 0 27.733 0 17.996S7.921.338 17.658.338s17.658 7.921 17.658 17.658-7.921 17.658-17.658 17.658" fill="#d31831" mask="url(#C)"/></g><path d="M15.677 25.803c.51-.537.765-1.199.765-1.987 0-.376-.067-.729-.201-1.06a2.89 2.89 0 0 0-.564-.886c-.242-.259-.519-.465-.832-.617s-.658-.229-1.034-.229c-.34 0-.671.072-.993.215a2.58 2.58 0 0 0-.846.605c-.241.26-.434.559-.577.899a2.75 2.75 0 0 0-.214 1.074c0 .376.067.734.201 1.074s.322.636.564.886.519.452.832.604.657.228 1.033.228c.734 0 1.356-.268 1.866-.805zm-3.423 1.584a4.03 4.03 0 0 1-1.275-.819 3.74 3.74 0 0 1-.86-1.234 3.78 3.78 0 0 1-.308-1.517 3.68 3.68 0 0 1 .308-1.503c.206-.466.493-.873.86-1.222a4.05 4.05 0 0 1 1.275-.819c.484-.197 1.003-.295 1.557-.295a4.09 4.09 0 0 1 1.557.295c.484.197.909.47 1.276.819s.654.756.859 1.222.309.966.309 1.503-.103 1.043-.309 1.517a3.72 3.72 0 0 1-.859 1.234 4.03 4.03 0 0 1-1.276.819c-.483.197-1.002.295-1.557.295s-1.073-.098-1.557-.295zm11.584-12.86c.313-.143.591-.345.832-.604a3.01 3.01 0 0 0 .577-.899c.144-.339.215-.698.215-1.074a2.79 2.79 0 0 0-.202-1.061c-.134-.331-.322-.626-.564-.886s-.523-.465-.846-.617a2.36 2.36 0 0 0-1.02-.228 2.42 2.42 0 0 0-.993.215 2.85 2.85 0 0 0-.859.59c-.25.251-.447.546-.591.886s-.215.707-.215 1.1c0 .376.067.73.201 1.06s.322.627.564.887a2.74 2.74 0 0 0 .846.617 2.42 2.42 0 0 0 1.047.228 2.39 2.39 0 0 0 1.007-.215zm1.409 12.994l-7.328-9.343-7.464-9.128.939-.805 7.275 9.316 7.517 9.128-.94.832zm-3.986-12.027a3.86 3.86 0 0 1-1.276-.819c-.358-.349-.644-.756-.859-1.221a3.55 3.55 0 0 1-.322-1.504c0-.537.108-1.038.322-1.503s.501-.872.859-1.222a4.06 4.06 0 0 1 1.276-.832c.493-.206 1.016-.308 1.57-.308s1.074.103 1.557.308a4.27 4.27 0 0 1 1.276.832c.367.35.653.757.859 1.222s.309.967.309 1.503-.103 1.038-.309 1.504-.492.872-.859 1.221a4.05 4.05 0 0 1-1.276.819 4.08 4.08 0 0 1-1.557.295 4.18 4.18 0 0 1-1.57-.295z" fill="#fff"/><path d="M47.674 15.494v12.215h-3.705V8.648h2.873l9.933 12.51V8.675h3.705v19.034h-3.006zm19.41 2.685a7.94 7.94 0 0 0 .362 2.389 6.48 6.48 0 0 0 1.047 2.041 5.26 5.26 0 0 0 1.678 1.423c.662.358 1.414.537 2.255.537.859 0 1.615-.183 2.268-.55s1.204-.855 1.651-1.463.788-1.293 1.02-2.054a7.92 7.92 0 0 0 .349-2.322 7.67 7.67 0 0 0-.376-2.39c-.251-.769-.604-1.45-1.061-2.04s-1.011-1.06-1.664-1.41-1.392-.524-2.215-.524c-.859 0-1.615.184-2.268.551s-1.208.85-1.665 1.449-.801 1.28-1.033 2.041a7.89 7.89 0 0 0-.349 2.322m5.289 9.665c-1.342 0-2.569-.272-3.678-.819a9.14 9.14 0 0 1-2.859-2.175c-.796-.903-1.41-1.937-1.839-3.101s-.644-2.353-.644-3.57c0-1.271.228-2.488.684-3.651s1.092-2.192 1.906-3.087a9.22 9.22 0 0 1 2.886-2.134c1.11-.528 2.317-.792 3.625-.792 1.342 0 2.568.282 3.678.846a9.24 9.24 0 0 1 2.845 2.215 10.06 10.06 0 0 1 1.826 3.114 10.16 10.16 0 0 1 .644 3.544 9.81 9.81 0 0 1-.684 3.638 9.94 9.94 0 0 1-1.893 3.06 9.16 9.16 0 0 1-2.873 2.121c-1.11.528-2.318.792-3.624.792" fill="#222"/><g fill="#424242"><path d="M96.802 22.367c0-.43-.076-.846-.228-1.248s-.358-.756-.618-1.061a2.93 2.93 0 0 0-.926-.725 2.61 2.61 0 0 0-1.181-.269H87.03v6.551h6.631a2.83 2.83 0 0 0 1.235-.269c.376-.178.707-.416.993-.711a3.23 3.23 0 0 0 .671-1.034c.161-.393.242-.806.242-1.235zM87.03 10.742v6.363h6.067c.43 0 .823-.085 1.181-.255s.667-.398.926-.685.465-.622.617-1.007.228-.792.228-1.222a3.67 3.67 0 0 0-.215-1.261 3.34 3.34 0 0 0-.577-1.02 2.54 2.54 0 0 0-.886-.672 2.63 2.63 0 0 0-1.114-.241H87.03zm12.215 12.054a4.55 4.55 0 0 1-.443 2.014 4.69 4.69 0 0 1-1.208 1.557c-.51.43-1.101.761-1.772.993s-1.392.349-2.161.349h-9.047V8.648h9.477c.662 0 1.262.143 1.799.43s.993.658 1.369 1.114.667.975.873 1.557.309 1.168.309 1.758c0 .949-.237 1.826-.711 2.631s-1.15 1.405-2.027 1.799c1.092.322 1.955.918 2.591 1.785s.953 1.893.953 3.074z"/><use xlink:href="#B"/><path d="M121.742 18.179c0 .966.156 1.902.47 2.805a7.75 7.75 0 0 0 1.329 2.403 6.42 6.42 0 0 0 2.068 1.664c.806.411 1.7.618 2.684.618 1.02 0 1.933-.219 2.738-.658s1.49-1.011 2.054-1.718a7.68 7.68 0 0 0 1.288-2.403c.295-.895.443-1.799.443-2.711a8.52 8.52 0 0 0-.47-2.806c-.313-.905-.761-1.7-1.342-2.389a6.73 6.73 0 0 0-2.067-1.651c-.796-.412-1.677-.618-2.644-.618-1.02 0-1.933.215-2.738.645a6.61 6.61 0 0 0-2.054 1.692 7.72 7.72 0 0 0-1.302 2.389 8.46 8.46 0 0 0-.457 2.738m6.524 9.665c-1.342 0-2.564-.272-3.665-.819s-2.045-1.271-2.832-2.175-1.396-1.937-1.826-3.101-.645-2.353-.645-3.57c0-1.271.228-2.488.685-3.651a10.07 10.07 0 0 1 1.893-3.087c.806-.895 1.758-1.606 2.859-2.134s2.295-.792 3.584-.792c1.342 0 2.559.282 3.651.846a9.35 9.35 0 0 1 2.819 2.215 10.09 10.09 0 0 1 1.826 3.101 10.05 10.05 0 0 1 .644 3.53 9.91 9.91 0 0 1-.684 3.651c-.457 1.163-1.083 2.188-1.879 3.074s-1.745 1.593-2.846 2.121-2.295.792-3.584.792m12.376-.136V8.675h2.416v10.523l9.826-10.55h2.604l-7.652 8.403 8.081 10.658h-2.631l-6.926-9.262-3.302 3.436v5.826zm30.363-2.148v2.148h-12.94V8.648h12.699v2.148h-10.282v6.175h8.94v2.013h-8.94v6.578z"/><use xlink:href="#B" x="71.787"/></g></g></svg>