<svg xmlns="http://www.w3.org/2000/svg" width="22" height="22" viewBox="0 0 22 22"><defs><style>.a{fill:none;}.b{fill:rgba(54,54,54,0.8);}</style></defs><path class="a" d="M0,0H22V22H0Z"/><path class="b" d="M16.689,3H4.711A1.716,1.716,0,0,0,3,4.711V16.689A1.716,1.716,0,0,0,4.711,18.4H16.689A1.716,1.716,0,0,0,18.4,16.689V4.711A1.716,1.716,0,0,0,16.689,3Zm0,13.689H4.711V8.133H16.689ZM4.711,6.422V4.711H16.689V6.422ZM6.422,9.844h8.556v1.711H6.422Zm0,3.422h5.989v1.711H6.422Z" transform="translate(0.3 0.3)"/></svg>