<svg xmlns="http://www.w3.org/2000/svg" width="16.852" height="18.725" viewBox="0 0 16.852 18.725"><defs><style>.a{fill:#464646;}</style></defs><path class="a" d="M5.509,2,6.893,7V9.4h1.2V7L9.5,2H8.286l-.5,2.277q-.212,1-.272,1.419H7.475Q7.386,5.1,7.2,4.267L6.717,2Zm5.385,1.889a1.783,1.783,0,0,0-.984.241,1.406,1.406,0,0,0-.552.772,4.574,4.574,0,0,0-.176,1.4v.786a5.025,5.025,0,0,0,.154,1.384,1.345,1.345,0,0,0,.521.768,1.786,1.786,0,0,0,1.009.247,1.775,1.775,0,0,0,.993-.243,1.362,1.362,0,0,0,.528-.766,4.825,4.825,0,0,0,.163-1.39V6.3a4.745,4.745,0,0,0-.166-1.4,1.415,1.415,0,0,0-.53-.772A1.672,1.672,0,0,0,10.894,3.889Zm2.291.106V8.034a1.9,1.9,0,0,0,.254,1.1.915.915,0,0,0,.794.353A1.246,1.246,0,0,0,15.4,8.74h.026l.106.662h.953V3.995H15.266v4.3a.594.594,0,0,1-.216.247.533.533,0,0,1-.3.1.275.275,0,0,1-.265-.154,1.208,1.208,0,0,1-.08-.517V3.995Zm-2.319.731A.363.363,0,0,1,11.225,5a2.617,2.617,0,0,1,.1.852V7.531a2.649,2.649,0,0,1-.1.865.364.364,0,0,1-.357.265.356.356,0,0,1-.353-.265,2.726,2.726,0,0,1-.1-.865V5.847a2.625,2.625,0,0,1,.1-.852A.357.357,0,0,1,10.867,4.726Zm-5.994,5.7A1.878,1.878,0,0,0,3,12.3v6.554a1.878,1.878,0,0,0,1.872,1.872H17.98a1.878,1.878,0,0,0,1.872-1.872V12.3a1.878,1.878,0,0,0-1.872-1.872Zm6.6,1.872h.989v2.4h.007a1.083,1.083,0,0,1,.38-.421.954.954,0,0,1,.53-.159.806.806,0,0,1,.572.194,1.176,1.176,0,0,1,.3.625,6.044,6.044,0,0,1,.091,1.2v.722h0a3.447,3.447,0,0,1-.247,1.5.809.809,0,0,1-.766.481,1.063,1.063,0,0,1-.528-.133.87.87,0,0,1-.358-.366h-.022l-.1.432h-.848Zm-6.144.23H8.372v.828H7.352v5.42h-1v-5.42H5.328Zm10.871,1.6a1.433,1.433,0,0,1,.812.194,1.047,1.047,0,0,1,.4.6,4.372,4.372,0,0,1,.115,1.132v.783H15.806v.232a5.993,5.993,0,0,0,.026.658.632.632,0,0,0,.108.32.3.3,0,0,0,.252.1.319.319,0,0,0,.316-.179,1.538,1.538,0,0,0,.093-.594l.887.051a1.48,1.48,0,0,1,.007.165,1.208,1.208,0,0,1-.347.945,1.407,1.407,0,0,1-.978.313,1.17,1.17,0,0,1-1.066-.477A2.782,2.782,0,0,1,14.8,16.9v-.8a2.767,2.767,0,0,1,.316-1.5A1.208,1.208,0,0,1,16.2,14.125Zm-8.134.088H9.095v3.352A1.013,1.013,0,0,0,9.162,18a.23.23,0,0,0,.223.13.455.455,0,0,0,.258-.082.5.5,0,0,0,.181-.208V14.213h1.029v4.564h-.806l-.088-.56H9.936a1.052,1.052,0,0,1-.984.635.77.77,0,0,1-.669-.3,1.6,1.6,0,0,1-.218-.931Zm8.112.607a.3.3,0,0,0-.243.1.622.622,0,0,0-.1.316,6.089,6.089,0,0,0-.026.666v.327h.752V15.9a5.586,5.586,0,0,0-.029-.666.622.622,0,0,0-.108-.32A.3.3,0,0,0,16.177,14.82Zm-3.26.033a.391.391,0,0,0-.274.119.654.654,0,0,0-.179.305v2.591a.456.456,0,0,0,.176.179.479.479,0,0,0,.234.06.315.315,0,0,0,.26-.119.841.841,0,0,0,.139-.4,5.827,5.827,0,0,0,.04-.783v-.587a7.706,7.706,0,0,0-.033-.827.965.965,0,0,0-.119-.415A.28.28,0,0,0,12.916,14.853Z" transform="translate(-3 -2)"/></svg>